<svg width="15" height="17" viewBox="0 0 15 17" fill="none" xmlns="http://www.w3.org/2000/svg">
<path d="M5.03414 7.7305V1.68042C5.03414 1.45624 5.0574 1.32179 5.45379 1.32179H10.7905C11.7228 1.32179 12.2355 2.08379 12.6085 3.5178L12.9114 4.6608H13.8202C13.9832 1.41178 14.1229 0 14.1229 0C14.1229 0 11.8391 0.246412 10.4874 0.246412H3.65945L0 0.134322V1.07551L1.23541 1.29955C2.0977 1.45651 2.30704 1.63556 2.37751 2.39769C2.37751 2.39769 2.44757 4.63843 2.44757 8.33594C2.44757 12.0329 2.37751 14.2516 2.37751 14.2516C2.37751 14.9237 2.0977 15.1701 1.23541 15.3275L0 15.5516V16.4923L3.65945 16.3805H9.76535C11.1403 16.3805 14.333 16.4923 14.333 16.4923C14.4027 15.6854 14.8691 12.0329 14.9391 11.6301H14.0768L13.1678 13.6244C12.4452 15.1926 11.3967 15.3048 10.2312 15.3048H6.75857C5.59322 15.3048 5.03387 14.8566 5.03387 13.8932V8.78404C5.03387 8.78404 7.57406 8.78404 8.45947 8.8514C9.11213 8.89639 9.50811 9.07558 9.71814 9.9494L9.99795 11.1146H10.9995L10.9299 8.17886L11.0696 5.22125H10.0677L9.74168 6.5208C9.53164 7.37226 9.39208 7.52948 8.483 7.6188C7.45776 7.73116 5.03373 7.70866 5.03373 7.70866L5.03414 7.7305Z" fill="white"/>
</svg>
