<svg width="20" height="20" viewBox="0 0 20 20" fill="none" xmlns="http://www.w3.org/2000/svg">
<path d="M10.001 9.833C10.4176 9.833 10.7716 9.68733 11.063 9.396C11.355 9.104 11.501 8.74967 11.501 8.333C11.501 7.91633 11.355 7.56233 11.063 7.271C10.7716 6.979 10.4176 6.833 10.001 6.833C9.5843 6.833 9.2303 6.979 8.93897 7.271C8.64697 7.56233 8.50097 7.91633 8.50097 8.333C8.50097 8.74967 8.64697 9.104 8.93897 9.396C9.2303 9.68733 9.5843 9.833 10.001 9.833ZM10.001 18.167C7.8343 16.2503 6.2163 14.4967 5.14697 12.906C4.07764 11.316 3.54297 9.84733 3.54297 8.5C3.54297 6.472 4.18864 4.861 5.47997 3.667C6.77197 2.47233 8.27897 1.875 10.001 1.875C11.723 1.875 13.23 2.47233 14.522 3.667C15.8133 4.861 16.459 6.472 16.459 8.5C16.459 9.84733 15.9243 11.316 14.855 12.906C13.7856 14.4967 12.1676 16.2503 10.001 18.167Z" fill="#4577FA"/>
</svg>
