<svg width="20" height="20" viewBox="0 0 20 20" fill="none" xmlns="http://www.w3.org/2000/svg">
<path d="M10.001 17.584C8.95964 17.584 7.97697 17.3863 7.05297 16.991C6.12964 16.595 5.32397 16.0533 4.63597 15.366C3.94864 14.678 3.40697 13.8723 3.01097 12.949C2.61564 12.025 2.41797 11.0423 2.41797 10.001C2.41797 8.94564 2.61564 7.95964 3.01097 7.04297C3.40697 6.1263 3.94864 5.32397 4.63597 4.63597C5.32397 3.94864 6.12964 3.40697 7.05297 3.01097C7.97697 2.61564 8.95964 2.41797 10.001 2.41797C11.0563 2.41797 12.0423 2.61564 12.959 3.01097C13.8756 3.40697 14.678 3.94864 15.366 4.63597C16.0533 5.32397 16.595 6.12964 16.991 7.05297C17.3863 7.97697 17.584 8.95964 17.584 10.001C17.584 11.0423 17.3863 12.025 16.991 12.949C16.595 13.8723 16.0533 14.678 15.366 15.366C14.678 16.0533 13.8723 16.595 12.949 16.991C12.025 17.3863 11.0423 17.584 10.001 17.584ZM9.00097 16.418V15.001C8.72297 15.001 8.48697 14.9036 8.29297 14.709C8.0983 14.515 8.00097 14.279 8.00097 14.001V13.001L3.64697 8.64697C3.60497 8.86897 3.5703 9.09097 3.54297 9.31297C3.51497 9.53564 3.50097 9.76497 3.50097 10.001C3.50097 11.6396 4.02864 13.0596 5.08397 14.261C6.13997 15.4623 7.44564 16.1813 9.00097 16.418ZM15.001 14.147C14.209 14.9383 13.8443 15.2543 13.907 15.095C13.9696 14.935 14.192 14.5563 14.574 13.959C14.956 13.3616 15.3726 12.6706 15.824 11.886C16.2753 11.1013 16.501 10.473 16.501 10.001C16.501 8.63964 16.1293 7.4173 15.386 6.33397C14.6433 5.25064 13.6816 4.46597 12.501 3.97997V4.50097C12.501 4.91764 12.355 5.27164 12.063 5.56297C11.7716 5.85497 11.4176 6.00097 11.001 6.00097H9.00097V7.00097C9.00097 7.27897 8.90364 7.51497 8.70897 7.70897C8.51497 7.90364 8.27897 8.00097 8.00097 8.00097H7.00097V10.001H12.001C12.279 10.001 12.515 10.0983 12.709 10.293C12.9036 10.487 13.001 10.723 13.001 11.001V13.001H13.855C14.1743 13.001 14.4453 13.112 14.668 13.334C14.89 13.5566 15.001 13.8276 15.001 14.147Z" fill="#4577FA"/>
</svg>
