<svg width="20" height="20" viewBox="0 0 20 20" fill="none" xmlns="http://www.w3.org/2000/svg">
<path d="M10.4775 19.395C9.60286 19.395 8.77653 19.2354 7.99853 18.916C7.22053 18.5967 6.53653 18.1557 5.94653 17.593C5.35586 17.0304 4.8872 16.367 4.54053 15.603C4.1932 14.839 4.01953 13.9987 4.01953 13.082V5.24903C4.01953 4.98503 4.1062 4.7627 4.27953 4.58203C4.45353 4.40136 4.67253 4.31103 4.93653 4.31103C5.19986 4.31103 5.42186 4.40136 5.60253 4.58203C5.7832 4.7627 5.87353 4.98503 5.87353 5.24903V9.89503H6.79053V2.56103C6.79053 2.2977 6.88053 2.0757 7.06053 1.89503C7.2412 1.71436 7.46353 1.62403 7.72753 1.62403C7.99153 1.62403 8.21386 1.71436 8.39453 1.89503C8.5752 2.0757 8.66553 2.2977 8.66553 2.56103V9.20703H9.56053V1.49903C9.56053 1.23503 9.65087 1.01636 9.83153 0.843031C10.0122 0.669031 10.2345 0.582031 10.4985 0.582031C10.7485 0.582031 10.9639 0.669031 11.1445 0.843031C11.3252 1.01636 11.4155 1.23503 11.4155 1.49903V9.20703H12.3315V3.10303C12.3315 2.83903 12.4185 2.61703 12.5925 2.43703C12.7659 2.25636 12.9845 2.16603 13.2485 2.16603C13.5125 2.16603 13.7382 2.25636 13.9255 2.43703C14.1129 2.61703 14.1999 2.83903 14.1865 3.10303V11.332C13.2832 11.5127 12.5539 11.9224 11.9985 12.561C11.4432 13.2004 11.1239 13.9714 11.0405 14.874H11.9565C12.0259 14.1794 12.3039 13.5717 12.7905 13.051C13.2765 12.5304 13.9292 12.2214 14.7485 12.124H15.0815V8.16603C15.0815 7.90203 15.1719 7.6797 15.3525 7.49903C15.5332 7.31836 15.7555 7.22803 16.0195 7.22803C16.2835 7.22803 16.5059 7.31836 16.6865 7.49903C16.8665 7.6797 16.9565 7.90203 16.9565 8.16603V13.082C16.9565 13.9987 16.7795 14.8427 16.4255 15.614C16.0715 16.3847 15.5992 17.0477 15.0085 17.603C14.4185 18.159 13.7345 18.5967 12.9565 18.916C12.1792 19.2354 11.3529 19.395 10.4775 19.395Z" fill="#4577FA"/>
</svg>
