<svg width="14" height="14" viewBox="0 0 14 14" fill="none" xmlns="http://www.w3.org/2000/svg">
<path d="M6.99951 12.3086C6.27057 12.3086 5.58271 12.1702 4.93591 11.8935C4.28957 11.6163 3.72561 11.2371 3.24401 10.756C2.76287 10.2744 2.38371 9.71042 2.10651 9.06408C1.82977 8.41728 1.69141 7.72942 1.69141 7.00048C1.69141 6.26175 1.82977 5.57155 2.10651 4.92988C2.38371 4.28822 2.76287 3.72658 3.24401 3.24498C3.72561 2.76385 4.28957 2.38468 4.93591 2.10748C5.58271 1.83075 6.27057 1.69238 6.99951 1.69238C7.73824 1.69238 8.42844 1.83075 9.07011 2.10748C9.71177 2.38468 10.2734 2.76385 10.755 3.24498C11.2361 3.72658 11.6153 4.28822 11.8925 4.92988C12.1692 5.57155 12.3076 6.26175 12.3076 7.00048C12.3076 7.72942 12.1692 8.41728 11.8925 9.06408C11.6153 9.71042 11.2361 10.2744 10.755 10.756C10.2734 11.2371 9.71177 11.6163 9.07011 11.8935C8.42844 12.1702 7.73824 12.3086 6.99951 12.3086ZM6.99951 11.5211C7.21324 11.3171 7.41017 10.9769 7.59031 10.5005C7.76997 10.024 7.91324 9.49412 8.02011 8.91078H5.97891C6.08577 9.50392 6.22904 10.0387 6.40871 10.5152C6.58884 10.9916 6.78577 11.3269 6.99951 11.5211ZM6.06641 11.4483C5.88161 11.1566 5.71384 10.7896 5.56311 10.3472C5.41237 9.90478 5.29804 9.42598 5.22011 8.91078H2.87231C3.18357 9.58185 3.61874 10.1409 4.17781 10.588C4.73687 11.035 5.36641 11.3218 6.06641 11.4483ZM7.93261 11.4483C8.63261 11.3218 9.26214 11.035 9.82121 10.588C10.3803 10.1409 10.8154 9.58185 11.1267 8.91078H8.77891C8.68137 9.42598 8.55981 9.90735 8.41421 10.3549C8.26814 10.8019 8.10761 11.1664 7.93261 11.4483ZM9.09951 8.15268H11.637C11.6757 7.94828 11.7026 7.75135 11.7175 7.56188C11.732 7.37242 11.7392 7.18528 11.7392 7.00048C11.7392 6.81568 11.732 6.62622 11.7175 6.43208C11.7026 6.23748 11.6757 6.04288 11.637 5.84828H9.09951C9.10931 6.03308 9.11421 6.22768 9.11421 6.43208V7.61298C9.11421 7.80758 9.10931 7.98748 9.09951 8.15268ZM5.92011 8.15268H8.07891C8.10784 7.93895 8.12721 7.73968 8.13701 7.55488C8.14681 7.37008 8.15171 7.18528 8.15171 7.00048C8.15171 6.81568 8.14681 6.62855 8.13701 6.43908C8.12721 6.24962 8.10784 6.05268 8.07891 5.84828H5.92011C5.89117 6.05268 5.87181 6.24962 5.86201 6.43908C5.85221 6.62855 5.84731 6.81568 5.84731 7.00048C5.84731 7.18528 5.85221 7.37242 5.86201 7.56188C5.87181 7.75135 5.89117 7.94828 5.92011 8.15268ZM2.36201 8.15268H4.89951C4.88971 7.96788 4.88481 7.77328 4.88481 7.56888V6.38798C4.88481 6.19338 4.88971 6.01348 4.89951 5.84828H2.36201C2.32327 6.05268 2.29644 6.24962 2.28151 6.43908C2.26704 6.62855 2.25981 6.81568 2.25981 7.00048C2.25981 7.18528 2.26704 7.37242 2.28151 7.56188C2.29644 7.75135 2.32327 7.94828 2.36201 8.15268ZM8.77891 5.09018H11.1267C10.8154 4.40932 10.3828 3.85025 9.82891 3.41298C9.27451 2.97572 8.64241 2.68405 7.93261 2.53798C8.11741 2.84925 8.28284 3.22352 8.42891 3.66078C8.57451 4.09852 8.69117 4.57498 8.77891 5.09018ZM5.97891 5.09018H8.02011C7.91324 4.49705 7.76507 3.95735 7.57561 3.47108C7.38614 2.98528 7.19411 2.65488 6.99951 2.47988C6.80491 2.65488 6.61287 2.98528 6.42341 3.47108C6.23394 3.95735 6.08577 4.49705 5.97891 5.09018ZM2.87231 5.09018H5.22011C5.30784 4.57498 5.42451 4.09852 5.57011 3.66078C5.71617 3.22352 5.88161 2.84925 6.06641 2.53798C5.34681 2.68405 4.71237 2.97572 4.16311 3.41298C3.61384 3.85025 3.18357 4.40932 2.87231 5.09018Z" fill="white"/>
</svg>
