<svg width="22" height="22" viewBox="0 0 22 22" fill="none" xmlns="http://www.w3.org/2000/svg">
<path d="M20.6245 21.719L12.5935 13.6873C11.9685 14.2292 11.2445 14.646 10.4215 14.9375C9.5985 15.229 8.7495 15.3748 7.8745 15.3748C5.7495 15.3748 3.9475 14.6405 2.4685 13.172C0.9895 11.703 0.25 9.9165 0.25 7.8125C0.25 5.6875 0.9895 3.8905 2.4685 2.4215C3.9475 0.953 5.73925 0.21875 7.84375 0.21875C9.94775 0.21875 11.7393 0.953 13.2183 2.4215C14.6978 3.8905 15.4375 5.6875 15.4375 7.8125C15.4375 8.6875 15.2863 9.5365 14.9838 10.3595C14.6818 11.1825 14.26 11.9167 13.7185 12.5623L21.7495 20.5625L20.6245 21.719ZM7.84375 13.8125C9.53125 13.8125 10.953 13.2292 12.109 12.0627C13.2655 10.8958 13.8438 9.479 13.8438 7.8125C13.8438 6.125 13.2655 4.698 12.109 3.5315C10.953 2.3645 9.53125 1.781 7.84375 1.781C6.17675 1.781 4.75475 2.3645 3.57775 3.5315C2.40075 4.698 1.81225 6.125 1.81225 7.8125C1.81225 9.479 2.40075 10.8958 3.57775 12.0627C4.75475 13.2292 6.17675 13.8125 7.84375 13.8125Z" fill="#00002F"/>
</svg>
