<svg width="40" height="40" viewBox="0 0 40 40" fill="none" xmlns="http://www.w3.org/2000/svg">
<path d="M32.124 33.042L22.041 23C21.2077 23.722 20.2494 24.2777 19.166 24.667C18.0827 25.0557 16.9854 25.25 15.874 25.25C13.2074 25.25 10.9504 24.3333 9.10303 22.5C7.2557 20.6667 6.33203 18.4307 6.33203 15.792C6.33203 13.1253 7.2557 10.8753 9.10303 9.04199C10.9504 7.20866 13.1934 6.29199 15.832 6.29199C18.4714 6.29199 20.7214 7.20866 22.582 9.04199C24.4434 10.8753 25.374 13.1113 25.374 15.75C25.374 16.9167 25.1657 18.0487 24.749 19.146C24.3324 20.2433 23.763 21.1947 23.041 22L33.166 32.083C33.3047 32.2223 33.374 32.382 33.374 32.562C33.374 32.7427 33.2907 32.9027 33.124 33.042C32.9854 33.2087 32.8187 33.292 32.624 33.292C32.4294 33.292 32.2627 33.2087 32.124 33.042ZM15.874 23.833C18.124 23.833 20.0337 23.0553 21.603 21.5C23.1724 19.9447 23.957 18.028 23.957 15.75C23.957 13.5 23.1724 11.5903 21.603 10.021C20.0337 8.45166 18.124 7.66699 15.874 7.66699C13.596 7.66699 11.6724 8.45166 10.103 10.021C8.5337 11.5903 7.74903 13.5 7.74903 15.75C7.74903 18.028 8.5337 19.9447 10.103 21.5C11.6724 23.0553 13.596 23.833 15.874 23.833Z" fill="white"/>
</svg>
