<svg width="40" height="40" viewBox="0 0 40 40" fill="none" xmlns="http://www.w3.org/2000/svg">
<path d="M8.04297 33.333L3.29297 16.667H12.918L19.459 6.87499C19.515 6.76366 19.5983 6.68033 19.709 6.62499C19.8203 6.56966 19.9316 6.54199 20.043 6.54199C20.1263 6.54199 20.2233 6.56966 20.334 6.62499C20.4453 6.68033 20.5286 6.76366 20.584 6.87499L27.084 16.667H36.709L31.876 33.333H8.04297ZM14.626 16.667H25.334L20.001 8.54199L14.626 16.667ZM9.00097 31.917H31.001H9.00097ZM20.001 26.417C20.3896 26.417 20.723 26.278 21.001 26C21.279 25.722 21.418 25.3887 21.418 25C21.418 24.6113 21.279 24.278 21.001 24C20.723 23.722 20.3896 23.583 20.001 23.583C19.6123 23.583 19.279 23.722 19.001 24C18.723 24.278 18.584 24.6113 18.584 25C18.584 25.3887 18.723 25.722 19.001 26C19.279 26.278 19.6123 26.417 20.001 26.417ZM9.00097 31.917H31.001L34.834 18.083H5.16797L9.00097 31.917Z" fill="white"/>
</svg>
