<svg width="11" height="11" viewBox="0 0 11 11" fill="none" xmlns="http://www.w3.org/2000/svg">
<path d="M2.52239 10.8859C2.33905 11.0077 2.16709 11.0077 2.00649 10.8859C1.84662 10.7635 1.79712 10.6029 1.85799 10.4041L2.93489 6.80714L0.184888 4.83594C0.0169547 4.69807 -0.0365785 4.53014 0.0242882 4.33214C0.0858882 4.1334 0.231088 4.03404 0.459888 4.03404H3.87429L4.99739 0.321537C5.02819 0.229871 5.08172 0.157271 5.15799 0.103737C5.23425 0.0502041 5.31822 0.0234375 5.40989 0.0234375C5.50155 0.0234375 5.58552 0.0502041 5.66179 0.103737C5.73805 0.157271 5.79159 0.229871 5.82239 0.321537L6.94549 4.03404H10.3599C10.5887 4.03404 10.7339 4.1334 10.7955 4.33214C10.8564 4.53014 10.8028 4.69807 10.6349 4.83594L7.88489 6.80714L8.96179 10.4041C9.02266 10.6029 8.97316 10.7635 8.81329 10.8859C8.65269 11.0077 8.48072 11.0077 8.29739 10.8859L5.40989 8.68594L2.52239 10.8859Z" fill="#F8D092"/>
</svg>
