<svg width="49" height="48" viewBox="0 0 49 48" fill="none" xmlns="http://www.w3.org/2000/svg">
<path d="M15.25 20.55C13.6833 20.55 12.3333 19.9833 11.2 18.85C10.0667 17.7167 9.5 16.35 9.5 14.75C9.5 13.1833 10.0667 11.8333 11.2 10.7C12.3333 9.56667 13.6833 9 15.25 9C16.85 9 18.2167 9.56667 19.35 10.7C20.4833 11.8333 21.05 13.1833 21.05 14.75C21.05 16.35 20.4833 17.7167 19.35 18.85C18.2167 19.9833 16.85 20.55 15.25 20.55ZM15.25 19C16.45 19 17.4583 18.5917 18.275 17.775C19.0917 16.9583 19.5 15.9667 19.5 14.8C19.5 13.6 19.0917 12.5917 18.275 11.775C17.4583 10.9583 16.4667 10.55 15.3 10.55C14.1 10.55 13.0917 10.9583 12.275 11.775C11.4583 12.5917 11.05 13.5833 11.05 14.75C11.05 15.95 11.4583 16.9583 12.275 17.775C13.0917 18.5917 14.0833 19 15.25 19ZM33.75 39C32.15 39 30.7833 38.4333 29.65 37.3C28.5167 36.1667 27.95 34.8167 27.95 33.25C27.95 31.65 28.5167 30.2833 29.65 29.15C30.7833 28.0167 32.15 27.45 33.75 27.45C35.3167 27.45 36.6667 28.0167 37.8 29.15C38.9333 30.2833 39.5 31.65 39.5 33.25C39.5 34.8167 38.9333 36.1667 37.8 37.3C36.6667 38.4333 35.3167 39 33.75 39ZM33.7 37.45C34.9 37.45 35.9083 37.0417 36.725 36.225C37.5417 35.4083 37.95 34.4167 37.95 33.25C37.95 32.05 37.5417 31.0417 36.725 30.225C35.9083 29.4083 34.9167 29 33.75 29C32.55 29 31.5417 29.4083 30.725 30.225C29.9083 31.0417 29.5 32.0333 29.5 33.2C29.5 34.4 29.9083 35.4083 30.725 36.225C31.5417 37.0417 32.5333 37.45 33.7 37.45ZM10.45 38.05C10.3167 37.8833 10.2417 37.7 10.225 37.5C10.2083 37.3 10.2833 37.1333 10.45 37L37.5 9.95C37.6333 9.78333 37.8 9.70833 38 9.725C38.2 9.74167 38.3833 9.81667 38.55 9.95C38.6833 10.1167 38.75 10.3 38.75 10.5C38.75 10.7 38.6833 10.8833 38.55 11.05L11.5 38.05C11.3667 38.2167 11.2 38.2917 11 38.275C10.8 38.2583 10.6167 38.1833 10.45 38.05Z" fill="#4577FA"/>
</svg>
