<svg width="49" height="48" viewBox="0 0 49 48" fill="none" xmlns="http://www.w3.org/2000/svg">
<path d="M24.5 42C22 42 19.6583 41.525 17.475 40.575C15.2917 39.625 13.3833 38.3417 11.75 36.725C10.1167 35.1083 8.83333 33.2 7.9 31C6.96667 28.8 6.5 26.45 6.5 23.95C6.5 21.45 6.96667 19.1083 7.9 16.925C8.83333 14.7417 10.1167 12.8417 11.75 11.225C13.3833 9.60833 15.2917 8.33333 17.475 7.4C19.6583 6.46667 22 6 24.5 6C27 6 29.3417 6.46667 31.525 7.4C33.7083 8.33333 35.6167 9.60833 37.25 11.225C38.8833 12.8417 40.1667 14.7417 41.1 16.925C42.0333 19.1083 42.5 21.45 42.5 23.95C42.5 26.45 42.0333 28.8 41.1 31C40.1667 33.2 38.8833 35.1083 37.25 36.725C35.6167 38.3417 33.7083 39.625 31.525 40.575C29.3417 41.525 27 42 24.5 42ZM24.5 40.55C25.8333 39.0833 26.9083 37.55 27.725 35.95C28.5417 34.35 29.2167 32.5167 29.75 30.45H19.3C19.8333 32.6167 20.5083 34.4917 21.325 36.075C22.1417 37.6583 23.2 39.15 24.5 40.55ZM22.4 40.35C21.3667 39.1833 20.425 37.7167 19.575 35.95C18.725 34.1833 18.1 32.35 17.7 30.45H9.25C10.55 33.25 12.3 35.475 14.5 37.125C16.7 38.775 19.3333 39.85 22.4 40.35ZM26.65 40.35C29.4833 39.9167 32.0583 38.8333 34.375 37.1C36.6917 35.3667 38.4833 33.15 39.75 30.45H31.35C30.7833 32.4167 30.0833 34.2667 29.25 36C28.4167 37.7333 27.55 39.1833 26.65 40.35ZM8.8 28.9H17.4C17.2333 27.9667 17.125 27.0917 17.075 26.275C17.025 25.4583 17 24.6833 17 23.95C17 23.15 17.0333 22.3583 17.1 21.575C17.1667 20.7917 17.2667 19.9667 17.4 19.1H8.8C8.53333 19.8333 8.34167 20.6083 8.225 21.425C8.10833 22.2417 8.05 23.0833 8.05 23.95C8.05 24.85 8.10833 25.7083 8.225 26.525C8.34167 27.3417 8.53333 28.1333 8.8 28.9ZM18.95 28.9H30.05C30.2167 27.9333 30.325 27.0667 30.375 26.3C30.425 25.5333 30.45 24.75 30.45 23.95C30.45 23.1833 30.425 22.425 30.375 21.675C30.325 20.925 30.2167 20.0667 30.05 19.1H18.95C18.7833 20.0667 18.675 20.925 18.625 21.675C18.575 22.425 18.55 23.1833 18.55 23.95C18.55 24.75 18.575 25.5333 18.625 26.3C18.675 27.0667 18.7833 27.9333 18.95 28.9ZM31.6 28.9H40.2C40.4667 28.1333 40.6583 27.3417 40.775 26.525C40.8917 25.7083 40.95 24.85 40.95 23.95C40.95 23.0833 40.8917 22.2417 40.775 21.425C40.6583 20.6083 40.4667 19.8333 40.2 19.1H31.65C31.7833 20.1333 31.875 21.0333 31.925 21.8C31.975 22.5667 32 23.2833 32 23.95C32 24.7167 31.9667 25.4917 31.9 26.275C31.8333 27.0583 31.7333 27.9333 31.6 28.9ZM31.3 17.55H39.75C38.4833 14.7167 36.725 12.45 34.475 10.75C32.225 9.05 29.6 8 26.6 7.6C27.6333 8.9 28.5583 10.4 29.375 12.1C30.1917 13.8 30.8333 15.6167 31.3 17.55ZM19.3 17.55H29.8C29.2667 15.55 28.5583 13.7083 27.675 12.025C26.7917 10.3417 25.7333 8.81667 24.5 7.45C23.3 8.65 22.2917 10.0417 21.475 11.625C20.6583 13.2083 19.9333 15.1833 19.3 17.55ZM9.25 17.55H17.7C18.1667 15.65 18.8 13.8583 19.6 12.175C20.4 10.4917 21.3167 8.98333 22.35 7.65C19.35 8.05 16.7333 9.09167 14.5 10.775C12.2667 12.4583 10.5167 14.7167 9.25 17.55Z" fill="#4577FA"/>
</svg>
