<svg width="49" height="48" viewBox="0 0 49 48" fill="none" xmlns="http://www.w3.org/2000/svg">
<path d="M24.5008 44C20.4341 44 16.7091 42.8 13.3258 40.4C9.94245 38 7.45078 34.9833 5.85078 31.35V38.6H4.30078V28.6H14.3008V30.15H7.05078C8.38411 33.6833 10.6924 36.6167 13.9758 38.95C17.2591 41.2833 20.7674 42.45 24.5008 42.45C26.9341 42.45 29.2341 42.0083 31.4008 41.125C33.5674 40.2417 35.4758 39.0167 37.1258 37.45C38.7758 35.8833 40.1175 34.0333 41.1508 31.9C42.1841 29.7667 42.7674 27.4667 42.9008 25H44.4508C44.3174 27.6333 43.7008 30.1083 42.6008 32.425C41.5008 34.7417 40.0674 36.7583 38.3008 38.475C36.5341 40.1917 34.4591 41.5417 32.0758 42.525C29.6924 43.5083 27.1674 44 24.5008 44ZM23.6508 37.4V34.9C22.3174 34.5667 21.1591 34.0417 20.1758 33.325C19.1924 32.6083 18.3674 31.5833 17.7008 30.25L19.1508 29.65C19.6841 30.8833 20.4591 31.8417 21.4758 32.525C22.4924 33.2083 23.6008 33.55 24.8008 33.55C26.1008 33.55 27.2841 33.2083 28.3508 32.525C29.4174 31.8417 29.9508 30.8 29.9508 29.4C29.9508 28.2333 29.5841 27.3 28.8508 26.6C28.1174 25.9 26.6341 25.1167 24.4008 24.25C22.2341 23.4167 20.6841 22.5667 19.7508 21.7C18.8174 20.8333 18.3508 19.65 18.3508 18.15C18.3508 16.9167 18.8091 15.8083 19.7258 14.825C20.6424 13.8417 21.9841 13.2333 23.7508 13V10.6H25.3508V13C26.4174 13.0667 27.3924 13.3833 28.2758 13.95C29.1591 14.5167 29.8841 15.2833 30.4508 16.25L29.1008 16.85C28.5674 16.0833 27.9341 15.475 27.2008 15.025C26.4674 14.575 25.6008 14.35 24.6008 14.35C23.2341 14.35 22.1174 14.7167 21.2508 15.45C20.3841 16.1833 19.9508 17.0833 19.9508 18.15C19.9508 19.2833 20.2758 20.15 20.9258 20.75C21.5758 21.35 23.0008 22.0667 25.2008 22.9C27.5674 23.8333 29.2091 24.7667 30.1258 25.7C31.0424 26.6333 31.5008 27.8667 31.5008 29.4C31.5008 30.3333 31.3258 31.1333 30.9758 31.8C30.6258 32.4667 30.1591 33.0333 29.5758 33.5C28.9924 33.9667 28.3258 34.325 27.5758 34.575C26.8258 34.825 26.0508 34.9667 25.2508 35V37.4H23.6508ZM4.55078 23C4.71745 20.2333 5.36745 17.6833 6.50078 15.35C7.63411 13.0167 9.10078 11.0083 10.9008 9.325C12.7008 7.64167 14.7674 6.33333 17.1008 5.4C19.4341 4.46667 21.9008 4 24.5008 4C28.5008 4 32.2258 5.2 35.6758 7.6C39.1258 10 41.6175 13.0667 43.1508 16.8V9.4H44.7008V19.4H34.7008V17.85H41.9508C40.6841 14.45 38.4174 11.55 35.1508 9.15C31.8841 6.75 28.3341 5.55 24.5008 5.55C22.1674 5.55 19.9174 5.975 17.7508 6.825C15.5841 7.675 13.6674 8.875 12.0008 10.425C10.3341 11.975 8.96745 13.8167 7.90078 15.95C6.83411 18.0833 6.23411 20.4333 6.10078 23H4.55078Z" fill="#4577FA"/>
</svg>
