<svg width="49" height="48" viewBox="0 0 49 48" fill="none" xmlns="http://www.w3.org/2000/svg">
<path d="M26.25 42.7L6.5 22.95V6H23.5L43.25 25.7L26.25 42.7ZM26.3 40.5L41 25.8L22.75 7.55H8.05V22.25L26.3 40.5ZM13.15 14.45C13.65 14.45 14.075 14.2667 14.425 13.9C14.775 13.5333 14.95 13.1167 14.95 12.65C14.95 12.15 14.775 11.725 14.425 11.375C14.075 11.025 13.65 10.85 13.15 10.85C12.65 10.85 12.225 11.0167 11.875 11.35C11.525 11.6833 11.35 12.1 11.35 12.6C11.35 13.1 11.525 13.5333 11.875 13.9C12.225 14.2667 12.65 14.45 13.15 14.45Z" fill="#4577FA"/>
</svg>
