<svg width="40" height="40" viewBox="0 0 40 40" fill="none" xmlns="http://www.w3.org/2000/svg">
<path d="M19.999 18.958C18.6104 18.958 17.4507 18.4927 16.52 17.562C15.5894 16.632 15.124 15.4723 15.124 14.083C15.124 12.6943 15.5894 11.5347 16.52 10.604C17.4507 9.67334 18.6104 9.20801 19.999 9.20801C21.3877 9.20801 22.5474 9.67334 23.478 10.604C24.4087 11.5347 24.874 12.6943 24.874 14.083C24.874 15.4723 24.4087 16.632 23.478 17.562C22.5474 18.4927 21.3877 18.958 19.999 18.958ZM30.207 31.042H9.79103C9.4017 31.042 9.06136 30.896 8.77003 30.604C8.47803 30.3127 8.33203 29.9587 8.33203 29.542V28.5C8.33203 27.778 8.54036 27.1253 8.95703 26.542C9.3737 25.9587 9.91536 25.5003 10.582 25.167C12.2214 24.4443 13.8187 23.8957 15.374 23.521C16.9294 23.1457 18.471 22.958 19.999 22.958C21.527 22.958 23.0687 23.1457 24.624 23.521C26.1794 23.8957 27.7627 24.4443 29.374 25.167C30.0687 25.5003 30.6244 25.9587 31.041 26.542C31.4577 27.1253 31.666 27.778 31.666 28.5V29.542C31.666 29.9587 31.52 30.3127 31.228 30.604C30.9367 30.896 30.5964 31.042 30.207 31.042ZM9.74903 29.625H30.249V28.5C30.249 28.1113 30.117 27.7293 29.853 27.354C29.589 26.9793 29.221 26.667 28.749 26.417C27.277 25.6943 25.8257 25.1733 24.395 24.854C22.9644 24.5347 21.499 24.375 19.999 24.375C18.499 24.375 17.0267 24.5347 15.582 24.854C14.138 25.1733 12.6937 25.6943 11.249 26.417C10.777 26.667 10.409 26.9793 10.145 27.354C9.88103 27.7293 9.74903 28.1113 9.74903 28.5V29.625ZM19.999 17.542C20.971 17.542 21.7904 17.2087 22.457 16.542C23.1237 15.8753 23.457 15.0557 23.457 14.083C23.457 13.111 23.1237 12.2917 22.457 11.625C21.7904 10.9583 20.971 10.625 19.999 10.625C19.027 10.625 18.2077 10.9583 17.541 11.625C16.8744 12.2917 16.541 13.111 16.541 14.083C16.541 15.0557 16.8744 15.8753 17.541 16.542C18.2077 17.2087 19.027 17.542 19.999 17.542Z" fill="white"/>
</svg>
