<svg width="42" height="33" viewBox="0 0 42 33" fill="none" xmlns="http://www.w3.org/2000/svg">
<path d="M6.64922 32.9996L0.949219 12.9996H12.4992L20.3992 1.19961C20.4992 1.06628 20.5992 0.97461 20.6992 0.92461C20.7992 0.87461 20.9159 0.849609 21.0492 0.849609C21.1492 0.849609 21.2576 0.87461 21.3742 0.92461C21.4909 0.97461 21.5826 1.06628 21.6492 1.19961L29.4992 12.9996H41.0492L35.2492 32.9996H6.64922ZM14.3492 12.9996H27.5992L20.9992 2.99961L14.3492 12.9996ZM7.69922 31.4496H34.2992H7.69922ZM20.9992 24.5496C21.4326 24.5496 21.7992 24.3996 22.0992 24.0996C22.3992 23.7996 22.5492 23.4329 22.5492 22.9996C22.5492 22.5663 22.3992 22.1996 22.0992 21.8996C21.7992 21.5996 21.4326 21.4496 20.9992 21.4496C20.5659 21.4496 20.1992 21.5996 19.8992 21.8996C19.5992 22.1996 19.4492 22.5663 19.4492 22.9996C19.4492 23.4329 19.5992 23.7996 19.8992 24.0996C20.1992 24.3996 20.5659 24.5496 20.9992 24.5496ZM7.69922 31.4496H34.2992L38.9992 14.5496H2.99922L7.69922 31.4496Z" fill="#4577FA"/>
</svg>
