<svg width="36" height="30" viewBox="0 0 36 30" fill="none" xmlns="http://www.w3.org/2000/svg">
<path d="M25.9984 19.2496L33.3984 12.8496L35.4984 13.0496L27.6984 19.6496L30.0484 29.8996L28.2484 28.7996L25.9984 19.2496ZM22.1984 7.49961L19.9484 2.09961L20.7484 0.0996094L23.8984 7.64961L22.1984 7.49961ZM8.99844 25.6496L15.9984 21.3996L22.9984 25.6996L21.1484 17.6496L27.3484 12.2996L19.1984 11.5996L15.9984 4.09961L12.7984 11.5496L4.64844 12.2496L10.8484 17.6496L8.99844 25.6496ZM6.64844 28.8496L9.14844 18.1996L0.898438 11.0996L11.7484 10.1496L15.9984 0.0996094L20.2484 10.1496L31.0984 11.0996L22.8484 18.1996L25.3484 28.8496L15.9984 23.1996L6.64844 28.8496Z" fill="#4577FA"/>
</svg>
